<svg width="316" height="271" viewBox="0 0 316 271" fill="none" xmlns="http://www.w3.org/2000/svg">
<path d="M157.538 270.918C154.119 270.918 150.74 270.299 147.4 269.062C144.061 267.825 141.12 265.936 138.579 263.395L118.44 245.212C87.2246 216.853 59.6808 189.276 35.8087 162.48C11.9362 135.684 0 107.836 0 78.9375C0 56.628 7.57887 37.8944 22.7366 22.7366C37.8944 7.57888 56.628 0 78.9375 0C91.7339 0 105.059 3.23278 118.912 9.69834C132.766 16.1642 145.753 28.359 157.875 46.2828C169.997 28.359 182.984 16.1642 196.838 9.69834C210.691 3.23278 224.016 0 236.813 0C259.122 0 277.856 7.57888 293.013 22.7366C308.171 37.8944 315.75 56.628 315.75 78.9375C315.75 108.511 303.325 136.938 278.474 164.217C253.623 191.497 226.422 218.529 196.871 245.314L176.834 263.395C174.292 265.936 171.296 267.825 167.843 269.062C164.391 270.299 160.956 270.918 157.538 270.918Z" fill="url(#paint0_linear_63_482)"/>
<path d="M139.268 262.67L139.286 262.688C141.727 265.128 144.545 266.938 147.748 268.125C150.981 269.322 154.243 269.918 157.538 269.918C160.833 269.918 164.154 269.322 167.506 268.121C170.822 266.933 173.692 265.123 176.126 262.688L176.145 262.67L176.164 262.653L196.2 244.573L139.268 262.67ZM139.268 262.67L139.249 262.653M139.268 262.67L139.249 262.653M139.249 262.653L119.112 244.472C87.9187 216.133 60.4005 188.58 36.5554 161.814C12.805 135.156 1 107.536 1 78.9375C1 56.8812 8.48187 38.4056 23.4437 23.4437C38.4056 8.48188 56.8812 1 78.9375 1C91.562 1 104.743 4.18888 118.489 10.6045C132.125 16.9684 144.986 29.01 157.047 46.843L157.875 48.0679M139.249 262.653L157.875 48.0679M157.875 48.0679L158.703 46.843M157.875 48.0679L158.703 46.843M158.703 46.843C170.764 29.01 183.625 16.9684 197.261 10.6045M158.703 46.843L197.261 10.6045M197.261 10.6045C211.007 4.18888 224.188 1 236.812 1M197.261 10.6045L236.812 1M236.812 1C258.869 1 277.344 8.48188 292.306 23.4437M236.812 1L292.306 23.4437M292.306 23.4437C307.268 38.4056 314.75 56.8812 314.75 78.9375M292.306 23.4437L314.75 78.9375M314.75 78.9375C314.75 108.204 302.461 136.401 277.735 163.544M314.75 78.9375L277.735 163.544M277.735 163.544C252.908 190.797 225.73 217.806 196.201 244.571L277.735 163.544Z" stroke="white" stroke-opacity="0.2" stroke-width="2"/>
<defs>
<linearGradient id="paint0_linear_63_482" x1="104.5" y1="189.5" x2="164" y2="40" gradientUnits="userSpaceOnUse">
<stop stop-color="#700C38"/>
<stop offset="1" stop-color="#FF4668"/>
</linearGradient>
</defs>
</svg>
