<svg width="27" height="27" viewBox="0 0 27 27" fill="none" xmlns="http://www.w3.org/2000/svg">
<mask id="path-1-outside-1_278_420" maskUnits="userSpaceOnUse" x="0" y="0" width="27" height="27" fill="black">
<rect fill="white" width="27" height="27"/>
<path d="M25.7273 13.5C25.8779 13.5 26.0003 13.6221 25.997 13.7727C25.9343 16.6506 24.8798 19.4219 23.0072 21.6156C21.0757 23.8784 18.4003 25.3781 15.462 25.8451C12.5238 26.312 9.51529 25.7157 6.97732 24.1632C4.43935 22.6108 2.53833 20.204 1.61593 17.3754C0.693537 14.5469 0.81026 11.4821 1.94512 8.7319C3.07998 5.98171 5.15856 3.72647 7.80726 2.37154C10.456 1.0166 13.5011 0.650819 16.3953 1.33994C19.201 2.00797 21.6865 3.62489 23.4338 5.91253C23.5252 6.03223 23.4983 6.20305 23.3767 6.29185V6.29185C23.255 6.38065 23.0846 6.35378 22.9931 6.23417C21.3225 4.05136 18.9484 2.50854 16.269 1.87057C13.501 1.21152 10.5888 1.56135 8.05567 2.85716C5.52256 4.15297 3.53468 6.30979 2.44935 8.93997C1.36401 11.5701 1.25238 14.5012 2.13452 17.2063C3.01667 19.9114 4.83473 22.2132 7.26195 23.6979C9.68917 25.1826 12.5664 25.753 15.3764 25.3063C18.1865 24.8597 20.7451 23.4255 22.5924 21.2614C24.3806 19.1665 25.3888 16.5208 25.4514 13.7727C25.4549 13.6221 25.5766 13.5 25.7273 13.5V13.5Z"/>
</mask>
<path d="M25.7273 13.5C25.8779 13.5 26.0003 13.6221 25.997 13.7727C25.9343 16.6506 24.8798 19.4219 23.0072 21.6156C21.0757 23.8784 18.4003 25.3781 15.462 25.8451C12.5238 26.312 9.51529 25.7157 6.97732 24.1632C4.43935 22.6108 2.53833 20.204 1.61593 17.3754C0.693537 14.5469 0.81026 11.4821 1.94512 8.7319C3.07998 5.98171 5.15856 3.72647 7.80726 2.37154C10.456 1.0166 13.5011 0.650819 16.3953 1.33994C19.201 2.00797 21.6865 3.62489 23.4338 5.91253C23.5252 6.03223 23.4983 6.20305 23.3767 6.29185V6.29185C23.255 6.38065 23.0846 6.35378 22.9931 6.23417C21.3225 4.05136 18.9484 2.50854 16.269 1.87057C13.501 1.21152 10.5888 1.56135 8.05567 2.85716C5.52256 4.15297 3.53468 6.30979 2.44935 8.93997C1.36401 11.5701 1.25238 14.5012 2.13452 17.2063C3.01667 19.9114 4.83473 22.2132 7.26195 23.6979C9.68917 25.1826 12.5664 25.753 15.3764 25.3063C18.1865 24.8597 20.7451 23.4255 22.5924 21.2614C24.3806 19.1665 25.3888 16.5208 25.4514 13.7727C25.4549 13.6221 25.5766 13.5 25.7273 13.5V13.5Z" fill="white"/>
<path d="M25.7273 13.5C25.8779 13.5 26.0003 13.6221 25.997 13.7727C25.9343 16.6506 24.8798 19.4219 23.0072 21.6156C21.0757 23.8784 18.4003 25.3781 15.462 25.8451C12.5238 26.312 9.51529 25.7157 6.97732 24.1632C4.43935 22.6108 2.53833 20.204 1.61593 17.3754C0.693537 14.5469 0.81026 11.4821 1.94512 8.7319C3.07998 5.98171 5.15856 3.72647 7.80726 2.37154C10.456 1.0166 13.5011 0.650819 16.3953 1.33994C19.201 2.00797 21.6865 3.62489 23.4338 5.91253C23.5252 6.03223 23.4983 6.20305 23.3767 6.29185V6.29185C23.255 6.38065 23.0846 6.35378 22.9931 6.23417C21.3225 4.05136 18.9484 2.50854 16.269 1.87057C13.501 1.21152 10.5888 1.56135 8.05567 2.85716C5.52256 4.15297 3.53468 6.30979 2.44935 8.93997C1.36401 11.5701 1.25238 14.5012 2.13452 17.2063C3.01667 19.9114 4.83473 22.2132 7.26195 23.6979C9.68917 25.1826 12.5664 25.753 15.3764 25.3063C18.1865 24.8597 20.7451 23.4255 22.5924 21.2614C24.3806 19.1665 25.3888 16.5208 25.4514 13.7727C25.4549 13.6221 25.5766 13.5 25.7273 13.5V13.5Z" stroke="#393E46" stroke-linejoin="round" mask="url(#path-1-outside-1_278_420)"/>
</svg>
