<svg width="32" height="32" viewBox="0 0 32 32" fill="none" xmlns="http://www.w3.org/2000/svg">
<path fill-rule="evenodd" clip-rule="evenodd" d="M16 5C12.6863 5 10 7.68629 10 11C10 14.3137 12.6863 17 16 17C19.3137 17 22 14.3137 22 11C22 7.68629 19.3137 5 16 5ZM8 11C8 6.58172 11.5817 3 16 3C20.4183 3 24 6.58172 24 11C24 15.4183 20.4183 19 16 19C11.5817 19 8 15.4183 8 11Z" fill="#2D2A26"/>
<path fill-rule="evenodd" clip-rule="evenodd" d="M16 19C9.95228 19 5 23.9523 5 30H3C3 22.8477 8.84772 17 16 17C23.1523 17 29 22.8477 29 30H27C27 23.9523 22.0477 19 16 19Z" fill="#2D2A26"/>
</svg>
